<?xml version="1.0" encoding="utf-8"?>
<!-- Generator: Adobe Illustrator 27.0.1, SVG Export Plug-In . SVG Version: 6.00 Build 0)  -->
<svg version="1.1" id="Layer_1" xmlns="http://www.w3.org/2000/svg" xmlns:xlink="http://www.w3.org/1999/xlink" x="0px" y="0px"
	 viewBox="0 0 16 16" style="enable-background:new 0 0 16 16;" xml:space="preserve">
<style type="text/css">
	.st0{fill:#AAC1C7;}
</style>
<path class="st0" d="M0,8c0,0.8,0.6,1.3,1.2,1.6C1.7,9.8,2.4,10,3,10h3.7l1,2H7.5C7.2,12,7,12.2,7,12.5v1C7,13.8,7.2,14,7.5,14h1.2
	l0.6,1.2C9.5,15.7,10,16,10.6,16H12c0.3,0,0.5-0.2,0.5-0.5c0,0,0-0.1,0-0.1l-0.3-1.6l0.9-0.3c0.3-0.1,0.4-0.4,0.3-0.6
	c0-0.1-0.2-0.3-0.3-0.3l-1.2-0.4l-0.4-2.2l2.3-0.4l1.3,1.3c0.2,0.2,0.5,0.2,0.7,0c0.1-0.1,0.1-0.2,0.1-0.4v-5C16,5.2,15.8,5,15.5,5
	c-0.1,0-0.3,0.1-0.4,0.1l-1.3,1.3l-2.3-0.4l0.4-2.2l1.2-0.4c0.3-0.1,0.4-0.4,0.3-0.6c0-0.1-0.2-0.3-0.3-0.3l-0.9-0.3l0.3-1.6
	c0-0.3-0.1-0.5-0.4-0.6c0,0-0.1,0-0.1,0h-1.4C10,0,9.5,0.3,9.3,0.8L8.7,2H7.5C7.2,2,7,2.2,7,2.5v1C7,3.8,7.2,4,7.5,4h0.2l-1,2H3
	C2.4,6,1.7,6.1,1.2,6.4C0.6,6.7,0,7.2,0,8z M3,9C2.6,9,2,8.9,1.6,8.7C1.2,8.5,1,8.2,1,8s0.2-0.5,0.6-0.7C2,7.1,2.6,7,3,7h4
	c0.2,0,0.4-0.1,0.4-0.3l2.7-5.4C10.3,1.1,10.4,1,10.6,1h0.8l-0.9,5.4c0,0.3,0.1,0.5,0.4,0.6l3,0.5c0.2,0,0.3,0,0.4-0.1L15,6.7v2.6
	l-0.6-0.6c-0.1-0.1-0.3-0.2-0.4-0.1l-3,0.5c-0.3,0-0.5,0.3-0.4,0.6c0,0,0,0,0,0l0.9,5.4h-0.8c-0.2,0-0.4-0.1-0.4-0.3L7.4,9.3
	C7.4,9.1,7.2,9,7,9H3z"/>
</svg>
