<?xml version="1.0" encoding="utf-8"?>
<!-- Generator: Adobe Illustrator 27.0.1, SVG Export Plug-In . SVG Version: 6.00 Build 0)  -->
<svg version="1.1" id="Layer_1" xmlns="http://www.w3.org/2000/svg" xmlns:xlink="http://www.w3.org/1999/xlink" x="0px" y="0px"
	 viewBox="0 0 16 16" style="enable-background:new 0 0 16 16;" xml:space="preserve">
<style type="text/css">
	.st0{fill:#AAC1C7;}
</style>
<path class="st0" d="M16,8c0-0.8-0.6-1.3-1.2-1.6C14.3,6.2,13.6,6,13,6H9.3l-1-2h0.2C8.8,4,9,3.8,9,3.5v-1C9,2.2,8.8,2,8.5,2H7.3
	L6.7,0.8C6.5,0.3,6,0,5.4,0H4C3.7,0,3.5,0.2,3.5,0.5c0,0,0,0.1,0,0.1l0.3,1.6L2.8,2.5C2.6,2.6,2.4,2.9,2.5,3.2
	c0,0.1,0.2,0.3,0.3,0.3l1.2,0.4l0.4,2.2L2.2,6.5L0.9,5.1C0.7,5,0.3,5,0.1,5.1C0.1,5.2,0,5.4,0,5.5v5C0,10.8,0.2,11,0.5,11
	c0.1,0,0.3-0.1,0.4-0.1l1.3-1.3l2.3,0.4l-0.4,2.2l-1.2,0.4c-0.3,0.1-0.4,0.4-0.3,0.6c0,0.1,0.2,0.3,0.3,0.3l0.9,0.3l-0.3,1.6
	c0,0.3,0.1,0.5,0.4,0.6c0,0,0.1,0,0.1,0h1.4c0.6,0,1.1-0.3,1.3-0.8L7.3,14h1.2C8.8,14,9,13.8,9,13.5v-1C9,12.2,8.8,12,8.5,12H8.3
	l1-2H13c0.6,0,1.3-0.1,1.8-0.4C15.4,9.3,16,8.8,16,8z M13,7c0.4,0,1,0.1,1.4,0.3C14.8,7.5,15,7.8,15,8c0,0.2-0.2,0.5-0.6,0.7
	C14,8.9,13.4,9,13,9H9C8.8,9,8.6,9.1,8.6,9.3l-2.7,5.4C5.7,14.9,5.6,15,5.4,15H4.6l0.9-5.4c0-0.3-0.1-0.5-0.4-0.6l-3-0.5
	c-0.2,0-0.3,0-0.4,0.1L1,9.3V6.7l0.6,0.6c0.1,0.1,0.3,0.2,0.4,0.1l3-0.5c0.3,0,0.5-0.3,0.4-0.6c0,0,0,0,0,0L4.6,1h0.8
	c0.2,0,0.4,0.1,0.4,0.3l2.7,5.4C8.6,6.9,8.8,7,9,7H13z"/>
</svg>
